<svg width="47" height="47" viewBox="0 0 47 47" fill="none" xmlns="http://www.w3.org/2000/svg">
<path id="Vector" d="M40.8057 25.5287V42.7753C40.8057 45.1036 38.6935 47 36.0845 47H28.4152V31.3863C28.4152 29.8765 27.1928 28.654 25.6831 28.654H21.3095C19.7955 28.654 18.5774 29.8765 18.5774 31.3863V47H10.9081C8.30991 47 6.18682 45.1036 6.18682 42.7753V25.5287C6.42008 25.4121 23.4932 10.312 23.4932 10.312C23.4932 10.312 40.5662 25.4077 40.7995 25.5287H40.8057ZM46.0907 18.4722L25.253 0.651202C24.253 -0.217068 22.7477 -0.217068 21.7585 0.651202L0.901366 18.4722C-0.13748 19.3686 -0.29948 20.9042 0.525565 21.9712C0.961837 22.5566 1.64862 22.9389 2.38945 23.0101C2.47152 23.0209 2.56655 23.0274 2.64862 23.0274C3.2901 23.0274 3.91427 22.8006 4.3959 22.3859L23.4992 6.04619L42.6069 22.3903C43.0928 22.7985 43.7062 23.0253 44.3477 23.0253C45.1943 23.0253 45.9847 22.6387 46.4772 21.9799C47.3001 20.9065 47.1359 19.3708 46.0949 18.4745L46.0907 18.4722Z" fill="white"/>
</svg>
