<svg width="51" height="42" viewBox="0 0 51 42" fill="none" xmlns="http://www.w3.org/2000/svg">
<path id="Vector" d="M47.0262 0.320354L33.5971 6.72246L20.0927 0.320354C19.6926 0.129996 19.2348 0.0294383 18.7681 0.0294383C18.3015 0.0294383 17.8436 0.129996 17.4435 0.320354L2.61448 7.33707C2.23406 7.51903 1.91924 7.77567 1.70042 8.08219C1.4816 8.38872 1.36617 8.73478 1.36527 9.08698V17.8749C1.36452 18.2108 1.46885 18.5417 1.66894 18.8378C1.86903 19.1339 2.15862 19.386 2.5118 19.5717C2.86498 19.7573 3.27072 19.8707 3.69271 19.9015C4.11469 19.9324 4.53975 19.8799 4.92984 19.7486C5.40627 19.6021 5.81559 19.3447 6.10392 19.0102C6.39225 18.6758 6.54609 18.28 6.5452 17.8749V10.2436L16.162 5.65544V18.6944C16.1628 19.0536 16.2819 19.4063 16.5077 19.7178C16.7334 20.0292 17.0579 20.2885 17.4489 20.4699C17.8395 20.6502 18.2832 20.7456 18.7352 20.7464C19.1872 20.7472 19.6315 20.6535 20.0232 20.4747C20.4148 20.2958 20.74 20.0382 20.9659 19.7279C21.1918 19.4176 21.3104 19.0655 21.3096 18.7072V5.62557L31.0018 10.2394V36.0441L26.8342 34.0595C26.5349 33.916 26.2003 33.8251 25.8529 33.7927C25.5056 33.7603 25.1535 33.7872 24.8203 33.8717C24.4664 33.9644 24.1418 34.1164 23.8686 34.3175C23.5954 34.5186 23.3801 34.7639 23.2373 35.0369C22.9835 35.4816 22.9431 35.9844 23.1235 36.4511C23.3039 36.9178 23.6928 37.3164 24.2173 37.5721L32.2941 41.4134C32.6944 41.6033 33.1522 41.7036 33.6187 41.7036C34.0852 41.7036 34.543 41.6033 34.9433 41.4134L49.7508 34.3497C50.1328 34.167 50.4486 33.909 50.6675 33.6009C50.8864 33.2927 51.001 32.9449 51 32.5912V2.03612C50.9988 1.58192 50.8072 1.14093 50.4553 0.782447C50.1035 0.423968 49.6113 0.168336 49.0562 0.0557339C48.362 -0.0725384 47.632 0.022624 47.0262 0.320354ZM45.8524 31.4431L36.1602 36.0484V10.2479L45.8524 5.63837V31.4431ZM9.60362 41.6865C9.71953 41.7854 9.85993 41.8643 10.016 41.9182C10.1722 41.9722 10.3406 42 10.5109 42C10.6812 42 10.8497 41.9722 11.0058 41.9182C11.1619 41.8643 11.3023 41.7854 11.4182 41.6865L17.9658 36.0825C19.4817 34.822 20.4899 33.2324 20.862 31.5161C21.2341 29.7998 20.9531 28.0345 20.055 26.4452C19.274 25.0834 18.0378 23.9168 16.4803 23.072C14.9228 22.2271 13.1033 21.7361 11.219 21.6522C10.9857 21.6522 10.7505 21.6522 10.5136 21.6522C10.2767 21.6522 10.0416 21.6522 9.80823 21.6522C7.92297 21.7354 6.10239 22.226 4.54385 23.0709C2.9853 23.9158 1.74826 25.0827 0.966812 26.4452C0.068693 28.0345 -0.212228 29.7998 0.159836 31.5161C0.531901 33.2324 1.54011 34.822 3.05602 36.0825L9.60362 41.6865ZM10.5082 26.1891C11.4667 26.1891 12.4036 26.4144 13.2006 26.8365C13.9975 27.2586 14.6186 27.8585 14.9854 28.5604C15.3522 29.2623 15.4482 30.0347 15.2612 30.7798C15.0742 31.5249 14.6127 32.2094 13.9349 32.7466C13.2572 33.2838 12.3937 33.6496 11.4536 33.7979C10.5136 33.9461 9.53921 33.87 8.65371 33.5793C7.7682 33.2885 7.01134 32.7962 6.47885 32.1645C5.94635 31.5328 5.66213 30.7901 5.66213 30.0304C5.66213 29.0116 6.1727 28.0346 7.08152 27.3142C7.99034 26.5938 9.22296 26.1891 10.5082 26.1891Z" fill="white"/>
</svg>
