<svg width="37" height="36" viewBox="0 0 37 36" fill="none" xmlns="http://www.w3.org/2000/svg">
<path id="Vector" fill-rule="evenodd" clip-rule="evenodd" d="M10.6375 3.6627V4.5877C10.6375 5.61024 9.81004 6.4377 8.7875 6.4377H6.9375C5.91496 6.4377 5.0875 5.61024 5.0875 4.5877V3.6627H3.7C1.65667 3.6627 0 5.31937 0 7.36269V10.1377H37V7.36269C37 5.31937 35.3433 3.6627 33.3 3.6627H31.9125V4.5877C31.9125 5.61024 31.085 6.4377 30.0625 6.4377H28.2125C27.19 6.4377 26.3625 5.61024 26.3625 4.5877V3.6627H10.6375ZM6.9375 0.887695H8.7875V4.5877H6.9375V0.887695ZM28.2125 0.887695H30.0625V4.5877H28.2125V0.887695ZM37 11.9877H0V31.4127C0 33.456 1.65667 35.1127 3.7 35.1127H33.3C35.3433 35.1127 37 33.456 37 31.4127V11.9877Z" fill="white"/>
</svg>
