<svg width="35" height="36" viewBox="0 0 35 36" fill="none" xmlns="http://www.w3.org/2000/svg">
<path id="Vector" fill-rule="evenodd" clip-rule="evenodd" d="M0 8.66667C0 4.15634 3.65634 0.5 8.16667 0.5H26.8333C31.3437 0.5 35 4.15634 35 8.66667V34.3333C35 34.7722 34.7538 35.1739 34.3628 35.373C33.9717 35.5721 33.502 35.5349 33.1472 35.2769L27.0373 30.8333H8.16667C3.65634 30.8333 0 27.177 0 22.6667V8.66667ZM8.75 9.83333C8.10565 9.83333 7.58333 10.3557 7.58333 11C7.58333 11.6444 8.10565 12.1667 8.75 12.1667H26.25C26.8943 12.1667 27.4167 11.6444 27.4167 11C27.4167 10.3557 26.8943 9.83333 26.25 9.83333H8.75ZM8.75 16.8333C8.10565 16.8333 7.58333 17.3557 7.58333 18C7.58333 18.6444 8.10565 19.1667 8.75 19.1667H15.75C16.3943 19.1667 16.9167 18.6444 16.9167 18C16.9167 17.3557 16.3943 16.8333 15.75 16.8333H8.75Z" fill="white"/>
</svg>
